<svg width="13" height="13" viewBox="0 0 13 13" fill="none" xmlns="http://www.w3.org/2000/svg">
<path d="M12.077 5.395L13 4.472L8.528 0L7.605 0.923L8.4955 1.82L6.3505 3.965C5.71324 3.79146 5.04157 3.78839 4.40275 3.95608C3.76393 4.12377 3.18037 4.45634 2.7105 4.9205L1.82 5.8175L0.923 4.9205L0 5.85L3.1135 8.9635L1.339 10.738L2.262 11.661L4.043 9.88L7.15 13L8.073 12.077L7.1825 11.18L8.073 10.2895C8.5394 9.81967 8.87385 9.2353 9.04273 8.59518C9.2116 7.95506 9.20893 7.28176 9.035 6.643L11.18 4.498L12.077 5.395Z" fill="#3DA6F8"/>
</svg>
