<svg width="16" height="16" viewBox="0 0 16 16" fill="none" xmlns="http://www.w3.org/2000/svg">
<ellipse cx="7.97772" cy="8" rx="7.97772" ry="8" fill="#0841D4"/>
<path d="M11.5019 6.46705C10.8812 5.55746 9.86961 4.96537 8.72729 4.96537C6.83939 4.96537 5.30904 6.58204 5.30904 8.57649C5.30904 10.1037 6.2065 11.4093 7.4741 11.9375H4.80143C4.69478 11.9375 4.58916 11.9153 4.49063 11.8721C4.39209 11.829 4.30256 11.7658 4.22714 11.6861C4.15172 11.6065 4.0919 11.5119 4.05108 11.4077C4.01027 11.3036 3.98926 11.192 3.98926 11.0794V4.8581C3.98926 4.74542 4.01027 4.63383 4.05108 4.52972C4.0919 4.42561 4.15172 4.33102 4.22714 4.25133C4.30256 4.17165 4.39209 4.10844 4.49063 4.06532C4.58916 4.0222 4.69478 4 4.80143 4H10.6897C10.7964 4 10.902 4.0222 11.0005 4.06532C11.0991 4.10844 11.1886 4.17165 11.264 4.25133C11.3394 4.33102 11.3992 4.42561 11.4401 4.52972C11.4809 4.63383 11.5019 4.74542 11.5019 4.8581V6.46705ZM10.9533 10.2378L11.8318 11.166C11.9184 11.2577 11.967 11.3819 11.967 11.5114C11.967 11.6409 11.9184 11.7651 11.8318 11.8568C11.6511 12.0477 11.3587 12.0477 11.178 11.8568L10.2993 10.9285C9.84174 11.2704 9.29496 11.4536 8.7346 11.4526C7.23512 11.4526 6.0199 10.1685 6.0199 8.58442C6.0199 7.00036 7.23512 5.71621 8.7346 5.71621C10.2341 5.71621 11.4493 7.00036 11.4493 8.58442C11.4493 9.20011 11.2657 9.77054 10.9533 10.2378ZM9.24403 6.57281C9.6623 6.62644 10.0101 6.90962 10.2946 7.44379C10.3215 7.49219 10.3654 7.5275 10.4167 7.54212C10.468 7.55674 10.5228 7.54951 10.5691 7.52198C10.6154 7.49446 10.6497 7.44883 10.6645 7.3949C10.6794 7.34097 10.6736 7.28304 10.6485 7.23355C10.3049 6.58783 9.85053 6.21841 9.29297 6.14676C9.26649 6.14337 9.23964 6.14552 9.21395 6.15309C9.18826 6.16065 9.16423 6.1735 9.14323 6.19088C9.12224 6.20826 9.10469 6.22984 9.09159 6.25438C9.07849 6.27893 9.07009 6.30596 9.06688 6.33394C9.06367 6.36191 9.0657 6.39028 9.07286 6.41743C9.08003 6.44457 9.09218 6.46996 9.10863 6.49214C9.12508 6.51432 9.14551 6.53286 9.16874 6.5467C9.19197 6.56054 9.21756 6.56942 9.24403 6.57281Z" fill="url(#paint0_linear_1617_2460)"/>
<path d="M11.5019 6.46705C10.8812 5.55746 9.86961 4.96537 8.72729 4.96537C6.83939 4.96537 5.30904 6.58204 5.30904 8.57649C5.30904 10.1037 6.2065 11.4093 7.4741 11.9375H4.80143C4.69478 11.9375 4.58916 11.9153 4.49063 11.8721C4.39209 11.829 4.30256 11.7658 4.22714 11.6861C4.15172 11.6065 4.0919 11.5119 4.05108 11.4077C4.01027 11.3036 3.98926 11.192 3.98926 11.0794V4.8581C3.98926 4.74542 4.01027 4.63383 4.05108 4.52972C4.0919 4.42561 4.15172 4.33102 4.22714 4.25133C4.30256 4.17165 4.39209 4.10844 4.49063 4.06532C4.58916 4.0222 4.69478 4 4.80143 4H10.6897C10.7964 4 10.902 4.0222 11.0005 4.06532C11.0991 4.10844 11.1886 4.17165 11.264 4.25133C11.3394 4.33102 11.3992 4.42561 11.4401 4.52972C11.4809 4.63383 11.5019 4.74542 11.5019 4.8581V6.46705ZM10.9533 10.2378L11.8318 11.166C11.9184 11.2577 11.967 11.3819 11.967 11.5114C11.967 11.6409 11.9184 11.7651 11.8318 11.8568C11.6511 12.0477 11.3587 12.0477 11.178 11.8568L10.2993 10.9285C9.84174 11.2704 9.29496 11.4536 8.7346 11.4526C7.23512 11.4526 6.0199 10.1685 6.0199 8.58442C6.0199 7.00036 7.23512 5.71621 8.7346 5.71621C10.2341 5.71621 11.4493 7.00036 11.4493 8.58442C11.4493 9.20011 11.2657 9.77054 10.9533 10.2378ZM9.24403 6.57281C9.6623 6.62644 10.0101 6.90962 10.2946 7.44379C10.3215 7.49219 10.3654 7.5275 10.4167 7.54212C10.468 7.55674 10.5228 7.54951 10.5691 7.52198C10.6154 7.49446 10.6497 7.44883 10.6645 7.3949C10.6794 7.34097 10.6736 7.28304 10.6485 7.23355C10.3049 6.58783 9.85053 6.21841 9.29297 6.14676C9.26649 6.14337 9.23964 6.14552 9.21395 6.15309C9.18826 6.16065 9.16423 6.1735 9.14323 6.19088C9.12224 6.20826 9.10469 6.22984 9.09159 6.25438C9.07849 6.27893 9.07009 6.30596 9.06688 6.33394C9.06367 6.36191 9.0657 6.39028 9.07286 6.41743C9.08003 6.44457 9.09218 6.46996 9.10863 6.49214C9.12508 6.51432 9.14551 6.53286 9.16874 6.5467C9.19197 6.56055 9.21756 6.56942 9.24403 6.57281Z" fill="url(#paint1_linear_1617_2460)"/>
<path d="M11.5019 6.46705C10.8812 5.55746 9.86961 4.96537 8.72729 4.96537C6.83939 4.96537 5.30904 6.58204 5.30904 8.57649C5.30904 10.1037 6.2065 11.4093 7.4741 11.9375H4.80143C4.69478 11.9375 4.58916 11.9153 4.49063 11.8721C4.39209 11.829 4.30256 11.7658 4.22714 11.6861C4.15172 11.6065 4.0919 11.5119 4.05108 11.4077C4.01027 11.3036 3.98926 11.192 3.98926 11.0794V4.8581C3.98926 4.74542 4.01027 4.63383 4.05108 4.52972C4.0919 4.42561 4.15172 4.33102 4.22714 4.25133C4.30256 4.17165 4.39209 4.10844 4.49063 4.06532C4.58916 4.0222 4.69478 4 4.80143 4H10.6897C10.7964 4 10.902 4.0222 11.0005 4.06532C11.0991 4.10844 11.1886 4.17165 11.264 4.25133C11.3394 4.33102 11.3992 4.42561 11.4401 4.52972C11.4809 4.63383 11.5019 4.74542 11.5019 4.8581V6.46705ZM10.9533 10.2378L11.8318 11.166C11.9184 11.2577 11.967 11.3819 11.967 11.5114C11.967 11.6409 11.9184 11.7651 11.8318 11.8568C11.6511 12.0477 11.3587 12.0477 11.178 11.8568L10.2993 10.9285C9.84174 11.2704 9.29496 11.4536 8.7346 11.4526C7.23512 11.4526 6.0199 10.1685 6.0199 8.58442C6.0199 7.00036 7.23512 5.71621 8.7346 5.71621C10.2341 5.71621 11.4493 7.00036 11.4493 8.58442C11.4493 9.20011 11.2657 9.77054 10.9533 10.2378ZM9.24403 6.57281C9.6623 6.62644 10.0101 6.90962 10.2946 7.44379C10.3215 7.49219 10.3654 7.5275 10.4167 7.54212C10.468 7.55674 10.5228 7.54951 10.5691 7.52198C10.6154 7.49446 10.6497 7.44883 10.6645 7.3949C10.6794 7.34097 10.6736 7.28304 10.6485 7.23355C10.3049 6.58783 9.85053 6.21841 9.29297 6.14676C9.26649 6.14337 9.23964 6.14552 9.21395 6.15309C9.18826 6.16065 9.16423 6.1735 9.14323 6.19088C9.12224 6.20826 9.10469 6.22984 9.09159 6.25438C9.07849 6.27893 9.07009 6.30596 9.06688 6.33394C9.06367 6.36191 9.0657 6.39028 9.07286 6.41743C9.08003 6.44457 9.09218 6.46996 9.10863 6.49214C9.12508 6.51432 9.14551 6.53286 9.16874 6.5467C9.19197 6.56055 9.21756 6.56942 9.24403 6.57281Z" fill="#DCE6FF"/>
<defs>
<linearGradient id="paint0_linear_1617_2460" x1="7.97812" y1="4" x2="7.97812" y2="12" gradientUnits="userSpaceOnUse">
<stop stop-color="#6691FF"/>
<stop offset="0.7572" stop-color="#193D9A"/>
<stop offset="1" stop-color="#00227A"/>
</linearGradient>
<linearGradient id="paint1_linear_1617_2460" x1="7.97812" y1="4" x2="7.97812" y2="12" gradientUnits="userSpaceOnUse">
<stop stop-color="#6691FF"/>
<stop offset="0.294" stop-color="#356CFA"/>
<stop offset="0.65" stop-color="#00227A"/>
<stop offset="1" stop-color="#00227A"/>
</linearGradient>
</defs>
</svg>
