<svg width="20" height="16" viewBox="0 0 20 16" fill="none" xmlns="http://www.w3.org/2000/svg">
<path opacity="0.9" d="M19.0148 0.0822205L0.75578 6.84614C-0.273192 7.22732 -0.247416 7.78127 0.808246 8.08198L5.22 9.33866L7.01377 14.4626C7.24861 15.1334 7.8621 15.2748 8.38688 14.7758L10.701 12.5751L15.2691 15.7887C15.8626 16.2062 16.4728 15.9865 16.633 15.2935L19.9664 0.873738C20.1262 0.182714 19.7007 -0.171873 19.0148 0.0822205ZM16.2362 3.34247L8.44781 10.0041C8.30777 10.1239 8.18103 10.3613 8.16158 10.537L7.81774 13.6403C7.77914 13.9888 7.65398 14.0032 7.53854 13.6692L6.03151 9.30817C5.97256 9.13756 6.05331 8.92844 6.21073 8.83781L16.0878 3.15049C16.7172 2.78808 16.7843 2.87367 16.2362 3.34247Z" fill="white"/>
</svg>
