<svg width="37" height="37" viewBox="0 0 37 37" fill="none" xmlns="http://www.w3.org/2000/svg">
<path d="M32.7308 0C33.863 0 34.9489 0.449793 35.7496 1.25043C36.5502 2.05106 37 3.13696 37 4.26923V32.7308C37 33.863 36.5502 34.9489 35.7496 35.7496C34.9489 36.5502 33.863 37 32.7308 37H4.26923C3.13696 37 2.05106 36.5502 1.25043 35.7496C0.449793 34.9489 0 33.863 0 32.7308V4.26923C0 3.13696 0.449793 2.05106 1.25043 1.25043C2.05106 0.449793 3.13696 0 4.26923 0H32.7308ZM24.8725 15.6538C23.7403 15.6538 22.6544 16.1036 21.8537 16.9043C21.0531 17.7049 20.6033 18.7908 20.6033 19.9231C20.6033 21.0553 21.0531 22.1412 21.8537 22.9419C22.6544 23.7425 23.7403 24.1923 24.8725 24.1923C26.0048 24.1923 27.0907 23.7425 27.8913 22.9419C28.692 22.1412 29.1418 21.0553 29.1418 19.9231C29.1418 18.7908 28.692 17.7049 27.8913 16.9043C27.0907 16.1036 26.0048 15.6538 24.8725 15.6538ZM24.9693 8.1585L24.8355 8.27804L11.3505 21.7631L11.2309 21.8969C11.0176 22.1707 10.9117 22.5131 10.9332 22.8596C10.9546 23.2061 11.102 23.5327 11.3476 23.7781C11.5932 24.0235 11.9199 24.1707 12.2664 24.1919C12.6129 24.2132 12.9552 24.107 13.2289 23.8935L13.3627 23.7753L26.8478 10.2903L26.9659 10.1565C27.1794 9.88281 27.2856 9.5405 27.2643 9.19401C27.2431 8.84751 27.0959 8.52073 26.8505 8.27517C26.6052 8.02962 26.2785 7.88222 25.932 7.86073C25.5855 7.83925 25.2431 7.94515 24.9693 8.1585ZM24.8725 18.5C25.25 18.5 25.6119 18.6499 25.8788 18.9168C26.1457 19.1837 26.2956 19.5457 26.2956 19.9231C26.2956 20.3005 26.1457 20.6625 25.8788 20.9293C25.6119 21.1962 25.25 21.3462 24.8725 21.3462C24.4951 21.3462 24.1331 21.1962 23.8663 20.9293C23.5994 20.6625 23.4495 20.3005 23.4495 19.9231C23.4495 19.5457 23.5994 19.1837 23.8663 18.9168C24.1331 18.6499 24.4951 18.5 24.8725 18.5ZM12.8077 8.53846C11.6754 8.53846 10.5895 8.98825 9.78889 9.78889C8.98825 10.5895 8.53846 11.6754 8.53846 12.8077C8.53846 13.94 8.98825 15.0259 9.78889 15.8265C10.5895 16.6271 11.6754 17.0769 12.8077 17.0769C13.94 17.0769 15.0259 16.6271 15.8265 15.8265C16.6271 15.0259 17.0769 13.94 17.0769 12.8077C17.0769 11.6754 16.6271 10.5895 15.8265 9.78889C15.0259 8.98825 13.94 8.53846 12.8077 8.53846ZM12.8077 11.3846C13.1851 11.3846 13.5471 11.5345 13.814 11.8014C14.0808 12.0683 14.2308 12.4303 14.2308 12.8077C14.2308 13.1851 14.0808 13.5471 13.814 13.814C13.5471 14.0808 13.1851 14.2308 12.8077 14.2308C12.4303 14.2308 12.0683 14.0808 11.8014 13.814C11.5345 13.5471 11.3846 13.1851 11.3846 12.8077C11.3846 12.4303 11.5345 12.0683 11.8014 11.8014C12.0683 11.5345 12.4303 11.3846 12.8077 11.3846Z" fill="#5992E8"/>
<path d="M28.1206 27H18.1315L17.9088 27.4237H27.6385C28.5757 27.4237 29.3357 28.0562 29.3357 28.8363V29.1673C29.3357 29.9472 28.5755 30.58 27.6385 30.58H16.2496L16.0269 31.0034H28.1206C28.5958 31.0034 29.0515 30.8147 29.3876 30.4787C29.7236 30.1427 29.9124 29.6869 29.9125 29.2117V28.7919C29.9125 28.3166 29.7237 27.8609 29.3877 27.5248C29.0516 27.1888 28.5958 27 28.1206 27ZM12.9468 30.58L12.7241 31.0034H15.6028L15.8253 30.58H12.9468ZM17.4848 27.4237L17.7075 27H14.8287L14.606 27.4237H17.4848ZM9.79189 31.0034H12.3L12.5225 30.58H10.2744C10.1375 30.58 10.0052 30.565 9.87774 30.5395L9.63799 30.9956C9.68882 30.9998 9.74006 31.0034 9.79189 31.0034ZM8.57695 29.1673V28.8363C8.57695 28.0562 9.33681 27.4237 10.2744 27.4237H11.0917L11.3144 27H9.79189C9.31665 27 8.86088 27.1888 8.52483 27.5248C8.18879 27.8609 8 28.3166 8 28.7919V29.2117C8 30.0134 8.52692 30.6918 9.25316 30.9208L9.51212 30.4283C8.95798 30.1957 8.57695 29.719 8.57695 29.1673ZM14.1819 27.4237L14.4047 27H11.7385L11.5157 27.4237H14.1819Z" fill="white"/>
<path d="M21.3107 27.4236H17.9091L16.2499 30.5797H19.6515L21.3107 27.4236ZM10.2482 27.4236C9.31064 27.4236 8.55078 28.0562 8.55078 28.836V29.167C8.55078 29.726 8.94182 30.2077 9.50776 30.4368L11.0919 27.4236H10.2482ZM11.516 27.4236L9.87538 30.5445C9.99546 30.5667 10.1199 30.5797 10.2482 30.5797H12.523L14.1824 27.4236H11.516ZM14.6063 27.4236L12.947 30.5797H15.8258L17.485 27.4236H14.6063Z" fill="white"/>
</svg>
