<svg width="37" height="37" viewBox="0 0 37 37" fill="none" xmlns="http://www.w3.org/2000/svg">
<path d="M23.8696 5C24.9766 5 26.0382 5.43252 26.821 6.2024C27.6037 6.97229 28.0435 8.01648 28.0435 9.10526H30.8261C31.9331 9.10526 32.9947 9.53778 33.7775 10.3077C34.5603 11.0776 35 12.1217 35 13.2105V26.8947C35 27.9835 34.5603 29.0277 33.7775 29.7976C32.9947 30.5675 31.9331 31 30.8261 31H7.17391C6.06692 31 5.00527 30.5675 4.22251 29.7976C3.43975 29.0277 3 27.9835 3 26.8947V9.10526C3 8.01648 3.43975 6.97229 4.22251 6.2024C5.00527 5.43252 6.06692 5 7.17391 5H23.8696ZM23.8696 7.05263H7.17391C6.64159 7.0526 6.12937 7.25264 5.74207 7.61183C5.35476 7.97101 5.12165 8.46219 5.09042 8.98486L5.08696 9.10526H25.9565C25.9566 8.58169 25.7532 8.0779 25.388 7.69697C25.0228 7.31603 24.5234 7.08675 23.992 7.05604L23.8696 7.05263Z" fill="white"/>
<path d="M35 15V23H26.1053C25.0165 23 23.9723 22.5786 23.2024 21.8284C22.4325 21.0783 22 20.0609 22 19C22 17.9391 22.4325 16.9217 23.2024 16.1716C23.9723 15.4214 25.0165 15 26.1053 15H35ZM26.1053 17C25.5609 17 25.0388 17.2107 24.6538 17.5858C24.2689 17.9609 24.0526 18.4696 24.0526 19C24.0526 19.5304 24.2689 20.0391 24.6538 20.4142C25.0388 20.7893 25.5609 21 26.1053 21C26.6497 21 27.1718 20.7893 27.5567 20.4142C27.9416 20.0391 28.1579 19.5304 28.1579 19C28.1579 18.4696 27.9416 17.9609 27.5567 17.5858C27.1718 17.2107 26.6497 17 26.1053 17Z" fill="#617BD8"/>
</svg>
