<svg width="356" height="58" viewBox="0 0 356 58" fill="none" xmlns="http://www.w3.org/2000/svg">
<path d="M340.073 14.5248V18.7276H340.241C342.526 15.2533 345.315 13.5161 348.607 13.5161C350.757 13.5161 352.46 14.2334 353.714 15.6679C354.991 17.1025 355.629 19.0414 355.629 21.4846V45.4572H345.852V26.3934C345.852 25.3399 345.606 24.477 345.113 23.8045C344.62 23.1321 343.982 22.7958 343.198 22.7958C341.115 22.7958 340.073 24.1071 340.073 26.7296V45.4572H330.33V14.5248H340.073Z" fill="#2B5889"/>
<path d="M315.546 36.0094H323.778C322.21 42.9579 318.29 46.4322 312.019 46.4322C308.099 46.4322 304.997 44.9417 302.712 41.9605C300.427 38.9793 299.285 34.8662 299.285 29.6211C299.285 24.7347 300.427 20.8233 302.712 17.887C304.997 14.9282 308.032 13.4489 311.817 13.4489C314.102 13.4489 316.297 14.1661 318.402 15.6007C320.508 17.0128 322.042 18.8957 323.005 21.2492C323.968 23.6028 324.506 27.3124 324.618 32.3782H308.323C308.457 36.9732 309.734 39.2707 312.153 39.2707C312.982 39.2707 313.721 38.9681 314.37 38.3629C315.02 37.7577 315.412 36.9732 315.546 36.0094ZM308.457 27.0658H315.546C315.479 24.8916 315.177 23.289 314.639 22.2579C314.102 21.2044 313.25 20.6776 312.086 20.6776C310.787 20.6776 309.857 21.182 309.297 22.1906C308.737 23.1993 308.457 24.8244 308.457 27.0658Z" fill="#2B5889"/>
<path d="M275.835 35.4714C279.172 37.4439 281.58 38.4302 283.058 38.4302C283.865 38.4302 284.537 38.2284 285.074 37.825C285.612 37.3991 285.88 36.8947 285.88 36.312C285.88 35.6843 285.656 35.2248 285.209 34.9334C284.761 34.6421 283.081 33.8575 280.169 32.5799C277.839 31.5488 276.16 30.3384 275.129 28.9487C274.099 27.5366 273.584 25.7882 273.584 23.7036C273.584 20.7225 274.603 18.268 276.641 16.3404C278.702 14.4127 281.322 13.4489 284.503 13.4489C287.594 13.4489 291.379 14.6817 295.859 17.1473L292.096 24.1071C289.184 22.3139 286.799 21.4173 284.94 21.4173C283.327 21.4173 282.521 22.0673 282.521 23.3674C282.521 23.995 282.812 24.5442 283.394 25.0149C283.999 25.4632 285.085 25.9675 286.653 26.5279C289.587 27.559 291.715 28.7918 293.037 30.2263C294.381 31.6609 295.053 33.4765 295.053 35.6731C295.053 38.8112 294 41.3889 291.894 43.4062C289.789 45.4236 287.101 46.4322 283.831 46.4322C280.292 46.4322 276.507 45.1882 272.475 42.7002L275.835 35.4714Z" fill="#02A3E6"/>
<path d="M249.495 35.4714C252.832 37.4439 255.24 38.4302 256.718 38.4302C257.524 38.4302 258.196 38.2284 258.734 37.825C259.271 37.3991 259.54 36.8947 259.54 36.312C259.54 35.6843 259.316 35.2248 258.868 34.9334C258.42 34.6421 256.74 33.8575 253.829 32.5799C251.499 31.5488 249.819 30.3384 248.789 28.9487C247.759 27.5366 247.243 25.7882 247.243 23.7036C247.243 20.7225 248.263 18.268 250.301 16.3404C252.361 14.4127 254.982 13.4489 258.163 13.4489C261.254 13.4489 265.039 14.6817 269.519 17.1473L265.756 24.1071C262.844 22.3139 260.458 21.4173 258.599 21.4173C256.987 21.4173 256.18 22.0673 256.18 23.3674C256.18 23.995 256.472 24.5442 257.054 25.0149C257.659 25.4632 258.745 25.9675 260.313 26.5279C263.247 27.559 265.375 28.7918 266.696 30.2263C268.04 31.6609 268.712 33.4765 268.712 35.6731C268.712 38.8112 267.659 41.3889 265.554 43.4062C263.449 45.4236 260.761 46.4322 257.491 46.4322C253.952 46.4322 250.166 45.1882 246.135 42.7002L249.495 35.4714Z" fill="#02A3E6"/>
<path d="M230.613 5.24508C230.613 3.81053 231.117 2.58893 232.125 1.58026C233.133 0.571594 234.343 0.0672607 235.754 0.0672607C237.187 0.0672607 238.408 0.571594 239.416 1.58026C240.424 2.58893 240.928 3.81053 240.928 5.24508C240.928 6.65722 240.424 7.87882 239.416 8.9099C238.408 9.91857 237.187 10.4229 235.754 10.4229C234.365 10.4229 233.155 9.91857 232.125 8.9099C231.117 7.87882 230.613 6.65722 230.613 5.24508ZM230.882 14.5248H240.659V45.4573H230.882V14.5248Z" fill="#2B5889"/>
<path d="M195.94 0.571655H206.12V21.6864H206.288L215.897 0.571655H226.581L216.166 23.502L226.144 45.4573H214.956L206.288 26.797H206.12V45.4573H195.94V0.571655Z" fill="#02A3E6"/>
<path d="M159.453 6.28723H169.23V14.5247H173.026V22.6612H169.163V45.4571H159.453V22.594H155.757V14.5247H159.453V6.28723Z" fill="#2B5889"/>
<path d="M152.499 36.0094V44.0787C150.17 45.6477 147.829 46.4322 145.477 46.4322C142.005 46.4322 139.217 44.9305 137.111 41.9269C135.028 38.9009 133.987 34.8438 133.987 29.7556C133.987 24.9364 135.062 21.0139 137.212 17.9879C139.362 14.9619 142.14 13.4489 145.544 13.4489C147.919 13.4489 150.259 14.2894 152.566 15.9705V23.9726C151.245 23.2777 150.058 22.9303 149.005 22.9303C147.437 22.9303 146.171 23.5691 145.208 24.8468C144.245 26.102 143.764 27.7831 143.764 29.8901C143.764 32.1092 144.234 33.8575 145.175 35.1352C146.115 36.4128 147.392 37.0516 149.005 37.0516C149.99 37.0516 151.155 36.7042 152.499 36.0094Z" fill="#2B5889"/>
<path d="M120.951 36.0094H129.182C127.615 42.9579 123.695 46.4322 117.423 46.4322C113.504 46.4322 110.401 44.9417 108.117 41.9605C105.832 38.9793 104.69 34.8662 104.69 29.6211C104.69 24.7347 105.832 20.8233 108.117 17.887C110.401 14.9282 113.436 13.4489 117.222 13.4489C119.506 13.4489 121.701 14.1661 123.807 15.6007C125.912 17.0128 127.447 18.8957 128.41 21.2492C129.373 23.6028 129.91 27.3124 130.022 32.3782H113.728C113.862 36.9732 115.139 39.2707 117.558 39.2707C118.386 39.2707 119.126 38.9681 119.775 38.3629C120.425 37.7577 120.817 36.9732 120.951 36.0094ZM113.862 27.0658H120.951C120.884 24.8916 120.582 23.289 120.044 22.2579C119.506 21.2044 118.655 20.6776 117.491 20.6776C116.191 20.6776 115.262 21.182 114.702 22.1906C114.142 23.1993 113.862 24.8244 113.862 27.0658Z" fill="#2B5889"/>
<path d="M88.6968 5.24507C88.6968 3.81052 89.2007 2.5777 90.2087 1.54662C91.239 0.515541 92.4709 0 93.9044 0C95.3379 0 96.5698 0.515541 97.6001 1.54662C98.6304 2.5777 99.1456 3.81052 99.1456 5.24507C99.1456 6.6572 98.6192 7.89001 97.5665 8.94351C96.5362 9.97459 95.3155 10.4901 93.9044 10.4901C92.4933 10.4901 91.2726 9.97459 90.2423 8.94351C89.2119 7.89001 88.6968 6.6572 88.6968 5.24507Z" fill="#2B5889"/>
<path d="M87.2219 58.0001C85.9473 58.0001 84.8638 57.9165 83.9715 57.7492C83.0792 57.582 82.2931 57.3729 81.6133 57.1221L83.3341 50.3484C83.759 50.4739 84.1839 50.5784 84.6088 50.662C84.9912 50.7456 85.3949 50.7875 85.8198 50.7875C87.052 50.7875 87.9018 50.3693 88.3692 49.5331C88.8791 48.7386 89.134 47.4843 89.134 45.77V14.5988H98.5667V45.4564C98.5667 47.7561 98.2056 49.8467 97.4833 51.7282C96.8034 53.6516 95.6349 55.1778 93.9778 56.3067C92.3632 57.4356 90.1113 58.0001 87.2219 58.0001Z" fill="#2B5889"/>
<path d="M69.278 13.4489C73.7353 13.4489 77.1286 14.9394 79.458 17.9206C81.7874 20.8794 82.9522 25.0037 82.9522 30.2936C82.9522 35.4714 81.7426 39.4837 79.3236 42.3303C76.9046 45.1546 73.5561 46.5667 69.278 46.5667C65.1791 46.5667 61.9202 45.121 59.5012 42.2295C57.1046 39.338 55.9062 35.3593 55.9062 30.2936C55.9062 25.0037 57.0486 20.8794 59.3332 17.9206C61.6402 14.9394 64.9551 13.4489 69.278 13.4489ZM69.3452 37.825C70.6219 37.825 71.5738 37.231 72.201 36.043C72.8505 34.855 73.1753 32.8265 73.1753 29.9574C73.1753 27.1107 72.8617 25.1158 72.2346 23.9726C71.6074 22.8295 70.6667 22.2579 69.4124 22.2579C68.1805 22.2579 67.2398 22.8182 66.5902 23.939C65.9407 25.0373 65.6159 27.0659 65.6159 30.0246C65.6159 35.2248 66.859 37.825 69.3452 37.825Z" fill="#2B5889"/>
<path d="M43.2734 14.5248V19.7026H43.4078C45.7372 15.668 48.1898 13.6506 50.7656 13.6506C51.1464 13.6506 51.6728 13.7179 52.3447 13.8524V23.4347C51.1576 23.233 50.0601 23.1321 49.0522 23.1321C45.4685 23.1321 43.6766 25.452 43.6766 30.0919V45.4572H33.9333V14.5248H43.2734Z" fill="#2B5889"/>
<path d="M0 0.571655H12.599C17.0339 0.571655 20.5952 1.83809 23.283 4.37097C25.9708 6.90384 27.3147 10.2436 27.3147 14.3904C27.3147 18.7613 25.9484 22.1907 23.2158 24.6788C20.5056 27.1444 16.7427 28.3772 11.9271 28.3772H10.18V45.4573H0V0.571655ZM10.18 9.17894V19.7699C12.4646 19.7251 14.1445 19.288 15.2196 18.4587C16.3171 17.6293 16.8659 16.3181 16.8659 14.5249C16.8659 12.5972 16.3395 11.2411 15.2868 10.4566C14.2341 9.64965 12.5318 9.22377 10.18 9.17894Z" fill="#02A3E6"/>
</svg>
