<svg width="6107" height="938" viewBox="0 0 6107 938" fill="none" xmlns="http://www.w3.org/2000/svg">
<path d="M6037.44 144.722C6049.24 288.283 6044.42 381.467 5790.87 439.019C5551.09 493.447 5619.34 693.534 5769.55 767.296C5860.17 811.792 5870.05 893.339 5819.04 938H5091V0H6107C6072.12 29.207 6031.92 77.9126 6037.44 144.722Z" fill="#3C5686"/>
<path d="M6009.47 144.718C6021.27 288.275 6016.45 381.457 5763.01 439.008C5523.37 493.434 5609.76 704.116 5741.73 767.3C5832.76 810.863 5842.18 893.341 5791.2 938H0V0H6079C6044.13 29.2062 6003.96 77.9107 6009.47 144.718Z" fill="url(#paint0_linear_1235_958)"/>
<defs>
<linearGradient id="paint0_linear_1235_958" x1="5585" y1="-437.5" x2="5585" y2="766" gradientUnits="userSpaceOnUse">
<stop stop-color="#60A3CE"/>
<stop offset="1" stop-color="#3C5686"/>
</linearGradient>
</defs>
</svg>
