<svg width="151" height="72" viewBox="0 0 151 72" fill="none" xmlns="http://www.w3.org/2000/svg">
<path d="M0 41.1173V16.9943C0 14.5818 0 14.5818 1.6082 14.582C1.87623 14.582 3.2164 14.5822 6.43279 14.582C11.2574 14.5818 10.4533 14.5818 10.4533 16.9943V35.4885C10.4533 38.7047 9.6027 45.499 14.4738 45.9418C23.3189 46.7457 23.8549 42.1892 24.9271 37.9008V16.1906C24.9271 14.2608 26.5353 14.5824 27.3394 14.582C28.1435 14.582 30.3949 14.5827 32.9681 14.582C35.3804 14.5814 35.3804 14.9407 35.3804 16.1902V51.5706C35.3804 52.8571 35.3804 53.1785 34.5763 53.1788C32.9681 53.1785 29.2692 53.1785 27.3394 53.1785C25.7312 53.1785 25.7312 53.1785 25.7312 52.3744V48.3539C22.5148 49.9621 21.7004 54.9199 10.4533 53.9826C0.804099 53.1785 0 44.8697 0 41.1173Z" fill="#00A5D5"/>
<path fill-rule="evenodd" clip-rule="evenodd" d="M48.2442 53.9702C57.8934 54.5733 68.3467 44.1659 68.3467 33.0636C68.3467 21.9613 65.9344 13.7653 52.2647 13.7653C42.6156 13.7653 35.3787 26.6308 35.3787 34.6718C35.3787 45.7741 35.3787 53.1661 48.2442 53.9702ZM52.2647 46.7255C57.8934 46.7255 62.718 39.4886 62.718 33.0558C63.5221 25.8189 61.1098 21.7984 55.4811 21.7984C48.2442 21.7984 45.0278 31.6631 45.0278 37.8804C45.0278 44.0977 49.0483 46.7255 52.2647 46.7255Z" fill="#001A98"/>
<path d="M59.5032 50.7712L69.1524 2.52523C69.9564 0.112829 69.9543 0.019808 71.1562 0.0197367C71.6833 0.0197396 74.3659 -0.0636629 77.1933 0.112405C81.0987 0.355599 80.8558 -0.42852 80.4097 1.72062C77.4614 15.9264 71.4038 45.142 70.7605 48.3584C70.1173 51.5747 69.9564 53.1832 69.9564 53.1832H59.5032C59.5032 53.1832 59.5031 52.3791 59.5032 50.7712Z" fill="#001A98"/>
<path d="M136.757 16.9951C141.191 16.9951 144.843 18.3216 147.152 21.0156C149.46 23.7096 150.368 27.5677 150.368 32.6253V57.1633H139.912V34.6853C139.912 31.5847 139.409 30.1092 138.403 28.5843C137.42 27.0594 135.866 26.297 133.741 26.297C130.815 26.297 128.701 27.3898 127.398 29.5755C126.095 31.7612 125.444 35.3574 125.444 40.3641L124.381 57.1633H114.988V17.7957H124.381V23.2853C125.524 21.2267 126.575 19.5137 129.249 18.1261C131.306 17.0587 134.129 16.9951 136.757 16.9951Z" fill="#00A5D5"/>
<path fill-rule="evenodd" clip-rule="evenodd" d="M102.115 16.993C92.4657 16.3899 81.2083 27.6014 81.2083 38.7037C81.2083 49.806 83.6206 58.0021 97.2903 58.0021C106.939 58.0021 114.981 45.9406 114.981 37.8996C114.981 26.7973 114.981 17.7972 102.115 16.993ZM98.0934 25.0382C92.5123 25.0382 87.7896 32.0417 87.7896 38.267C86.9923 45.2704 89.3842 49.1612 94.9654 49.1612C102.141 49.1612 104.526 39.096 104.526 33.0792C104.526 27.0625 101.283 25.0382 98.0934 25.0382Z" fill="#001A98"/>
<path d="M91.1015 20.2288L81.2105 68.4503C80.4065 70.8627 80.4064 71.6667 79.6023 71.6667C78.9715 71.8176 75.9969 71.8424 73.1695 71.6663C69.2642 71.4231 69.4525 71.6667 69.9531 69.2545C72.9015 55.0488 79.2009 25.8581 79.8442 22.6417C80.4875 19.4253 80.6483 17.8169 80.6483 17.8169H91.1015C91.1015 17.8169 91.1016 18.6209 91.1015 20.2288Z" fill="#001A98"/>
</svg>
