<svg width="238" height="39" viewBox="0 0 238 39" fill="none" xmlns="http://www.w3.org/2000/svg">
<path d="M227.59 9.72057V12.5332H227.702C229.231 10.2081 231.097 9.04553 233.301 9.04553C234.74 9.04553 235.879 9.52556 236.719 10.4856C237.573 11.4457 238 12.7432 238 14.3783V30.4217H231.457V17.6635C231.457 16.9585 231.292 16.3809 230.963 15.9309C230.633 15.4809 230.206 15.2559 229.681 15.2559C228.287 15.2559 227.59 16.1334 227.59 17.8885V30.4217H221.069V9.72057H227.59Z" fill="white"/>
<path d="M211.176 24.0988H216.684C215.635 28.7491 213.012 31.0742 208.815 31.0742C206.191 31.0742 204.115 30.0767 202.586 28.0816C201.057 26.0865 200.293 23.3338 200.293 19.8236C200.293 16.5534 201.057 13.9358 202.586 11.9707C204.115 9.99054 206.146 9.00049 208.68 9.00049C210.209 9.00049 211.678 9.48052 213.087 10.4406C214.496 11.3856 215.523 12.6457 216.167 14.2208C216.812 15.7959 217.171 18.2785 217.246 21.6687H206.341C206.431 24.7439 207.286 26.2815 208.905 26.2815C209.459 26.2815 209.954 26.079 210.389 25.6739C210.823 25.2689 211.086 24.7439 211.176 24.0988ZM206.431 18.1135H211.176C211.131 16.6584 210.928 15.5859 210.568 14.8958C210.209 14.1908 209.639 13.8383 208.86 13.8383C207.99 13.8383 207.368 14.1758 206.993 14.8508C206.619 15.5259 206.431 16.6134 206.431 18.1135Z" fill="white"/>
<path d="M184.599 23.7388C186.833 25.0589 188.444 25.7189 189.433 25.7189C189.973 25.7189 190.423 25.5839 190.782 25.3139C191.142 25.0289 191.322 24.6914 191.322 24.3014C191.322 23.8813 191.172 23.5738 190.872 23.3788C190.572 23.1838 189.448 22.6588 187.5 21.8037C185.941 21.1137 184.816 20.3036 184.127 19.3736C183.437 18.4285 183.093 17.2585 183.093 15.8634C183.093 13.8683 183.775 12.2257 185.139 10.9356C186.518 9.64552 188.272 9.00049 190.4 9.00049C192.469 9.00049 195.002 9.82553 198 11.4756L195.482 16.1334C193.533 14.9333 191.937 14.3333 190.692 14.3333C189.613 14.3333 189.073 14.7683 189.073 15.6384C189.073 16.0584 189.268 16.4259 189.658 16.7409C190.063 17.0409 190.79 17.3785 191.839 17.7535C193.803 18.4435 195.227 19.2686 196.111 20.2286C197.011 21.1887 197.46 22.4037 197.46 23.8738C197.46 25.9739 196.756 27.699 195.347 29.0491C193.938 30.3992 192.139 31.0742 189.95 31.0742C187.582 31.0742 185.049 30.2417 182.351 28.5766L184.599 23.7388Z" fill="white"/>
<path d="M166.971 23.7388C169.205 25.0589 170.816 25.7189 171.805 25.7189C172.345 25.7189 172.795 25.5839 173.154 25.3139C173.514 25.0289 173.694 24.6914 173.694 24.3014C173.694 23.8813 173.544 23.5738 173.244 23.3788C172.945 23.1838 171.82 22.6588 169.872 21.8037C168.313 21.1137 167.188 20.3036 166.499 19.3736C165.809 18.4285 165.465 17.2585 165.465 15.8634C165.465 13.8683 166.147 12.2257 167.511 10.9356C168.89 9.64552 170.644 9.00049 172.772 9.00049C174.841 9.00049 177.374 9.82553 180.372 11.4756L177.854 16.1334C175.905 14.9333 174.309 14.3333 173.064 14.3333C171.985 14.3333 171.446 14.7683 171.446 15.6384C171.446 16.0584 171.64 16.4259 172.03 16.7409C172.435 17.0409 173.162 17.3785 174.211 17.7535C176.175 18.4435 177.599 19.2686 178.483 20.2286C179.383 21.1887 179.832 22.4037 179.832 23.8738C179.832 25.9739 179.128 27.699 177.719 29.0491C176.31 30.3992 174.511 31.0742 172.322 31.0742C169.954 31.0742 167.421 30.2417 164.723 28.5766L166.971 23.7388Z" fill="white"/>
<path d="M154.335 3.51024C154.335 2.55019 154.672 1.73264 155.347 1.0576C156.021 0.382563 156.831 0.0450439 157.775 0.0450439C158.734 0.0450439 159.551 0.382563 160.226 1.0576C160.9 1.73264 161.238 2.55019 161.238 3.51024C161.238 4.45529 160.9 5.27284 160.226 5.96288C159.551 6.63792 158.734 6.97544 157.775 6.97544C156.846 6.97544 156.036 6.63792 155.347 5.96288C154.672 5.27284 154.335 4.45529 154.335 3.51024ZM154.515 9.72059H161.058V30.4218H154.515V9.72059Z" fill="white"/>
<path d="M131.13 0.382568H137.943V14.5134H138.056L144.486 0.382568H151.636L144.666 15.7284L151.344 30.4218H143.857L138.056 17.9336H137.943V30.4218H131.13V0.382568Z" fill="white"/>
<path d="M106.712 4.20776H113.255V9.72058H115.796V15.1659H113.21V30.4217H106.712V15.1209H104.239V9.72058H106.712V4.20776Z" fill="white"/>
<path d="M102.058 24.0988V29.4991C100.499 30.5492 98.9326 31.0742 97.3587 31.0742C95.0353 31.0742 93.1691 30.0692 91.76 28.0591C90.366 26.034 89.6689 23.3188 89.6689 19.9136C89.6689 16.6884 90.3885 14.0633 91.8275 12.0382C93.2665 10.013 95.1252 9.00049 97.4037 9.00049C98.9926 9.00049 100.559 9.56302 102.103 10.6881V16.0434C101.219 15.5784 100.424 15.3458 99.7196 15.3458C98.6703 15.3458 97.8234 15.7734 97.1788 16.6284C96.5343 17.4685 96.212 18.5935 96.212 20.0036C96.212 21.4887 96.5268 22.6588 97.1563 23.5138C97.7859 24.3689 98.6403 24.7964 99.7196 24.7964C100.379 24.7964 101.159 24.5639 102.058 24.0988Z" fill="white"/>
<path d="M80.9451 24.0988H86.4538C85.4045 28.7491 82.7813 31.0742 78.5842 31.0742C75.961 31.0742 73.8849 30.0767 72.3559 28.0816C70.827 26.0865 70.0625 23.3338 70.0625 19.8236C70.0625 16.5534 70.827 13.9358 72.3559 11.9707C73.8849 9.99054 75.916 9.00049 78.4493 9.00049C79.9782 9.00049 81.4472 9.48052 82.8563 10.4406C84.2653 11.3856 85.2921 12.6457 85.9367 14.2208C86.5812 15.7959 86.941 18.2785 87.0159 21.6687H76.1109C76.2008 24.7439 77.0552 26.2815 78.6741 26.2815C79.2287 26.2815 79.7234 26.079 80.1581 25.6739C80.5928 25.2689 80.8551 24.7439 80.9451 24.0988ZM76.2008 18.1135H80.9451C80.9001 16.6584 80.6977 15.5859 80.338 14.8958C79.9782 14.1908 79.4086 13.8383 78.6292 13.8383C77.7597 13.8383 77.1377 14.1758 76.7629 14.8508C76.3882 15.5259 76.2008 16.6134 76.2008 18.1135Z" fill="white"/>
<path d="M59.3594 3.5102C59.3594 2.55014 59.6966 1.7251 60.3712 1.03506C61.0607 0.34502 61.8852 0 62.8445 0C63.8038 0 64.6283 0.34502 65.3178 1.03506C66.0073 1.7251 66.3521 2.55014 66.3521 3.5102C66.3521 4.45525 65.9998 5.2803 65.2953 5.98534C64.6058 6.67538 63.7889 7.0204 62.8445 7.0204C61.9001 7.0204 61.0832 6.67538 60.3937 5.98534C59.7041 5.2803 59.3594 4.45525 59.3594 3.5102Z" fill="white"/>
<path d="M58.3722 38.8159C57.5191 38.8159 56.794 38.7599 56.1968 38.648C55.5997 38.536 55.0736 38.3961 54.6187 38.2282L55.7703 33.6951C56.0547 33.779 56.339 33.849 56.6234 33.9049C56.8793 33.9609 57.1494 33.9889 57.4338 33.9889C58.2584 33.9889 58.8272 33.7091 59.14 33.1494C59.4812 32.6177 59.6518 31.7783 59.6518 30.631V9.77002H65.9645V30.4211C65.9645 31.9602 65.7228 33.3593 65.2394 34.6185C64.7845 35.9057 64.0025 36.9271 62.8935 37.6826C61.8129 38.4381 60.3058 38.8159 58.3722 38.8159Z" fill="white"/>
<path d="M46.3634 9.00049C49.3464 9.00049 51.6174 9.99804 53.1763 11.9932C54.7352 13.9733 55.5147 16.7334 55.5147 20.2736C55.5147 23.7388 54.7052 26.424 53.0863 28.3291C51.4675 30.2192 49.2265 31.1642 46.3634 31.1642C43.6203 31.1642 41.4393 30.1967 39.8204 28.2616C38.2165 26.3265 37.4146 23.6638 37.4146 20.2736C37.4146 16.7334 38.179 13.9733 39.708 11.9932C41.2519 9.99804 43.4704 9.00049 46.3634 9.00049ZM46.4084 25.3139C47.2628 25.3139 47.8999 24.9164 48.3196 24.1213C48.7543 23.3263 48.9717 21.9687 48.9717 20.0486C48.9717 18.1435 48.7618 16.8084 48.3421 16.0434C47.9224 15.2783 47.2928 14.8958 46.4534 14.8958C45.6289 14.8958 44.9994 15.2708 44.5647 16.0209C44.13 16.7559 43.9126 18.1135 43.9126 20.0936C43.9126 23.5738 44.7445 25.3139 46.4084 25.3139Z" fill="white"/>
<path d="M28.9602 9.72053V13.1857H29.0501C30.6091 10.4856 32.2505 9.1355 33.9743 9.1355C34.2291 9.1355 34.5814 9.1805 35.0311 9.27051V15.6834C34.2366 15.5484 33.5021 15.4809 32.8276 15.4809C30.4292 15.4809 29.23 17.0334 29.23 20.1386V30.4217H22.7095V9.72053H28.9602Z" fill="white"/>
<path d="M0 0.382568H8.43174C11.3997 0.382568 13.7831 1.23012 15.5819 2.92521C17.3806 4.62031 18.28 6.85544 18.28 9.63059C18.28 12.5558 17.3656 14.8509 15.5369 16.516C13.7231 18.1661 11.2048 18.9911 7.98205 18.9911H6.81285V30.4218H0V0.382568ZM6.81285 6.1429V13.2308C8.3418 13.2008 9.46603 12.9083 10.1855 12.3532C10.92 11.7982 11.2873 10.9207 11.2873 9.7206C11.2873 8.43052 10.935 7.52297 10.2305 6.99794C9.52599 6.45791 8.38677 6.1729 6.81285 6.1429Z" fill="white"/>
</svg>
