<svg width="112" height="53" viewBox="0 0 112 53" fill="none" xmlns="http://www.w3.org/2000/svg">
<path d="M0 30.3557V12.5464C0 10.7653 0 10.7653 1.18729 10.7655C1.38517 10.7655 2.37457 10.7656 4.74915 10.7655C8.31101 10.7653 7.71736 10.7653 7.71736 12.5464V26.2001C7.71736 28.5746 7.0894 33.5906 10.6856 33.9175C17.2157 34.511 17.6114 31.1471 18.4029 27.981V11.953C18.4029 10.5283 19.5902 10.7658 20.1839 10.7655C20.7775 10.7655 22.4397 10.766 24.3394 10.7655C26.1203 10.765 26.1203 11.0302 26.1203 11.9528V38.0731C26.1203 39.0229 26.1203 39.2602 25.5267 39.2603C24.3394 39.2602 21.6086 39.2602 20.1839 39.2602C18.9966 39.2602 18.9966 39.2602 18.9966 38.6665V35.6983C16.622 36.8856 16.0208 40.5458 7.71736 39.8538C0.593643 39.2602 0 33.126 0 30.3557Z" fill="#00A5D5"/>
<path fill-rule="evenodd" clip-rule="evenodd" d="M35.6174 39.8446C42.7412 40.2899 50.4585 32.6064 50.4585 24.4099C50.4585 16.2134 48.6776 10.1625 38.5857 10.1625C31.4619 10.1625 26.1191 19.6608 26.1191 25.5972C26.1191 33.7937 26.1191 39.251 35.6174 39.8446ZM38.5857 34.4961C42.7412 34.4961 46.303 29.1533 46.303 24.4042C46.8967 19.0614 45.1157 16.0932 40.9602 16.0932C35.6175 16.0932 33.2429 23.376 33.2429 27.966C33.2429 32.5561 36.2111 34.4961 38.5857 34.4961Z" fill="#001A98"/>
<path d="M43.9297 37.4829L51.0535 1.8643C51.647 0.0832984 51.6455 0.0146237 52.5328 0.0145711C52.9219 0.0145732 54.9024 -0.0470005 56.9898 0.0829857C59.873 0.262529 59.6937 -0.316364 59.3644 1.27028C57.1877 11.758 52.7156 33.327 52.2407 35.7016C51.7658 38.0762 51.647 39.2636 51.647 39.2636H43.9297L43.9297 37.4829Z" fill="#001A98"/>
<path d="M100.964 12.547C104.238 12.547 106.934 13.5263 108.638 15.5152C110.342 17.5041 111.012 20.3524 111.012 24.0863V42.2021H103.293V25.6071C103.293 23.318 102.922 22.2287 102.179 21.103C101.454 19.9772 100.306 19.4143 98.7369 19.4143C96.577 19.4143 95.0162 20.2211 94.0544 21.8347C93.0927 23.4483 92.6118 26.1033 92.6118 29.7997L91.8271 42.2021H84.8921V13.138H91.8271V17.1909C92.6708 15.6711 93.447 14.4064 95.4212 13.382C96.9398 12.5939 99.0237 12.547 100.964 12.547Z" fill="#00A5D5"/>
<path fill-rule="evenodd" clip-rule="evenodd" d="M75.3884 12.5455C68.2646 12.1003 59.9536 20.3773 59.9536 28.5739C59.9536 36.7704 61.7346 42.8213 71.8265 42.8213C78.9502 42.8213 84.8872 33.9166 84.8872 27.9802C84.8872 19.7837 84.8872 13.1392 75.3884 12.5455ZM72.4195 18.485C68.2991 18.485 64.8125 23.6555 64.8125 28.2514C64.2239 33.4219 65.9898 36.2943 70.1101 36.2943C75.4078 36.2943 77.1686 28.8635 77.1686 24.4215C77.1686 19.9795 74.774 18.485 72.4195 18.485Z" fill="#001A98"/>
<path d="M67.2573 14.9344L59.955 50.5349C59.3615 52.3159 59.3614 52.9095 58.7678 52.9095C58.302 53.0209 56.106 53.0392 54.0186 52.9092C51.1354 52.7297 51.2744 52.9095 51.644 51.1286C53.8207 40.6409 58.4714 19.0903 58.9463 16.7157C59.4212 14.3411 59.54 13.1537 59.54 13.1537H67.2573L67.2573 14.9344Z" fill="#001A98"/>
</svg>
